<svg width="26" height="26" viewBox="0 0 26 26" fill="none" xmlns="http://www.w3.org/2000/svg">
<g clip-path="url(#clip0_40_15)">
<path d="M13 26C20.1797 26 26 20.1797 26 13C26 5.8203 20.1797 0 13 0C5.8203 0 0 5.8203 0 13C0 20.1797 5.8203 26 13 26Z" fill="#424190"/>
<mask id="mask0_40_15" style="mask-type:luminance" maskUnits="userSpaceOnUse" x="7" y="7" width="12" height="12">
<path d="M19 7H7V19H19V7Z" fill="white"/>
</mask>
<g mask="url(#mask0_40_15)">
<path d="M13.4894 13L18.4369 8.05244C18.5722 7.91723 18.5722 7.69818 18.4369 7.56296C18.3017 7.42774 18.0827 7.42774 17.9475 7.56296L12.9999 12.5105L8.05232 7.56296C7.9171 7.42774 7.69805 7.42774 7.56284 7.56296C7.42762 7.69818 7.42762 7.91723 7.56284 8.05244L12.5104 13L7.56284 17.9476C7.42762 18.0828 7.42762 18.3018 7.56284 18.4371C7.63045 18.5047 7.71879 18.5385 7.80758 18.5385C7.89637 18.5385 7.98471 18.5047 8.05232 18.4371L12.9999 13.4895L17.9475 18.4371C18.0151 18.5047 18.1034 18.5385 18.1922 18.5385C18.281 18.5385 18.3693 18.5047 18.4369 18.4371C18.5722 18.3018 18.5722 18.0828 18.4369 17.9476L13.4894 13Z" fill="white"/>
</g>
</g>
<defs>
<clipPath id="clip0_40_15">
<rect width="26" height="26" fill="white"/>
</clipPath>
</defs>
</svg>
