<svg width="110" height="18" viewBox="0 0 110 18" fill="none" xmlns="http://www.w3.org/2000/svg">
<path fill-rule="evenodd" clip-rule="evenodd" d="M13.3069 17.7947C13.49 17.9313 13.7029 17.9999 13.9168 17.9999C14.1322 17.9999 14.3472 17.9308 14.5309 17.7902C14.8946 17.5141 15.0497 17.0238 14.912 16.5762L13.3058 11.1578L17.5739 8.01419C17.9371 7.73475 18.088 7.24335 17.9488 6.79515C17.8106 6.3486 17.4119 6.04425 16.9603 6.04091L11.6472 6.03264L9.99275 0.748682C9.85033 0.301576 9.45066 0 9.00011 0H32.0001C31.5496 0 31.1499 0.301022 31.008 0.748682L29.325 6.03264L24.0388 6.04091C23.5888 6.04425 23.1907 6.34805 23.051 6.79515C22.9122 7.24335 23.0631 7.73475 23.4258 8.01419L27.6939 11.1578L26.0877 16.5762C25.9511 17.0238 26.1046 17.5141 26.4694 17.7902C26.8341 18.0691 27.3265 18.0691 27.6934 17.7947L32.0001 14.5664L36.3069 17.7947C36.49 17.9313 36.7029 17.9999 36.9168 17.9999C37.1322 17.9999 37.3472 17.9308 37.5309 17.7902C37.8946 17.5141 38.0497 17.0238 37.912 16.5762L36.3058 11.1578L40.5739 8.01419C40.9371 7.73475 41.088 7.24335 40.9488 6.79515C40.8106 6.3486 40.4119 6.04425 39.9603 6.04091L34.6472 6.03264L32.9928 0.748682C32.8503 0.301576 32.4507 0 32.0001 0H55.0001C54.5496 0 54.1499 0.301022 54.008 0.748682L52.325 6.03264L47.0388 6.04091C46.5888 6.04425 46.1907 6.34805 46.051 6.79515C45.9122 7.24335 46.0631 7.73475 46.4258 8.01419L50.6939 11.1578L49.0877 16.5762C48.9511 17.0238 49.1046 17.5141 49.4694 17.7902C49.8341 18.0691 50.3265 18.0691 50.6934 17.7947L55.0001 14.5664L59.3069 17.7947C59.49 17.9313 59.7029 17.9999 59.9168 17.9999C60.1322 17.9999 60.3472 17.9308 60.5309 17.7902C60.8946 17.5141 61.0497 17.0238 60.912 16.5762L59.3058 11.1578L63.5739 8.01419C63.9371 7.73475 64.088 7.24335 63.9488 6.79515C63.8106 6.3486 63.4119 6.04425 62.9603 6.04091L57.6472 6.03264L55.9928 0.748682C55.8503 0.301576 55.4507 0 55.0001 0H78.0001C77.5496 0 77.1499 0.301022 77.008 0.748682L75.325 6.03264L70.0388 6.04091C69.5888 6.04425 69.1907 6.34805 69.0509 6.79515C68.9122 7.24335 69.0631 7.73475 69.4258 8.01419L73.6939 11.1578L72.0877 16.5762C71.9511 17.0238 72.1046 17.5141 72.4694 17.7902C72.8341 18.0691 73.3265 18.0691 73.6934 17.7947L78.0001 14.5664L82.3069 17.7947C82.49 17.9313 82.7029 17.9999 82.9168 17.9999C83.1322 17.9999 83.3472 17.9308 83.5309 17.7902C83.8946 17.5141 84.0497 17.0238 83.912 16.5762L82.3058 11.1578L86.5739 8.01419C86.9371 7.73475 87.088 7.24335 86.9488 6.79515C86.8106 6.3486 86.4119 6.04425 85.9603 6.04091L80.6472 6.03264L78.9928 0.748682C78.8503 0.301576 78.4507 0 78.0001 0H101C100.55 0 100.15 0.301022 100.008 0.748682L98.325 6.03264L93.0388 6.04091C92.5888 6.04425 92.1907 6.34805 92.0509 6.79515C91.9122 7.24335 92.0631 7.73475 92.4258 8.01419L96.6939 11.1578L95.0877 16.5762C94.9511 17.0238 95.1046 17.5141 95.4694 17.7902C95.8341 18.0691 96.3265 18.0691 96.6934 17.7947L101 14.5664L105.307 17.7947C105.49 17.9313 105.703 17.9999 105.917 17.9999C106.132 17.9999 106.347 17.9308 106.531 17.7902C106.895 17.5141 107.05 17.0238 106.912 16.5762L105.306 11.1578L109.574 8.01419C109.937 7.73475 110.088 7.24335 109.949 6.79515C109.811 6.3486 109.412 6.04425 108.96 6.04091L103.647 6.03264L101.993 0.748682C101.85 0.301576 101.451 0 101 0H110V18H0V7.13236C1.01451e-05 7.47383 0.152977 7.80398 0.425773 8.01419L4.69389 11.1578L3.08765 16.5762C2.95107 17.0238 3.1046 17.5141 3.46936 17.7902C3.83411 18.0691 4.32647 18.0691 4.69337 17.7947L9.00011 14.5664L13.3069 17.7947ZM9.00011 0C8.5496 0 8.14989 0.301022 8.00802 0.748682L6.32502 6.03264L1.03883 6.04091C0.588835 6.04425 0.190716 6.34805 0.0509518 6.79515C0.016593 6.90617 3.34077e-06 7.01991 0 7.13236V0H9.00011Z" fill="white"/>
</svg>
