<svg width="28" height="28" viewBox="0 0 28 28" fill="none" xmlns="http://www.w3.org/2000/svg">
<path d="M9.96296 26.2282C10.3611 26.0568 10.64 25.6609 10.64 25.2V22.176C10.64 22.0657 10.649 21.9509 10.663 21.8344C10.6551 21.8366 10.6478 21.8383 10.64 21.84C10.64 21.84 8.95999 21.84 8.62399 21.84C7.78399 21.84 7.056 21.504 6.72 20.832C6.328 20.104 6.16 18.872 5.152 18.2C4.984 18.088 5.096 17.92 5.432 17.92C5.768 17.976 6.49599 18.424 6.94399 19.04C7.44799 19.656 7.952 20.16 8.848 20.16C10.2407 20.16 10.9872 20.09 11.4363 19.8492C11.9594 19.0714 12.6834 18.48 13.44 18.48V18.466C10.2659 18.3641 8.23815 17.309 7.29399 15.68C5.24159 15.7035 3.45464 15.9068 2.43488 16.0759C2.4024 15.8928 2.3744 15.7086 2.35032 15.5232C3.35664 15.3574 5.06239 15.1609 7.02352 15.1234C6.9608 14.9688 6.90648 14.8103 6.86056 14.6479C4.8944 14.5482 3.1976 14.6261 2.27584 14.7022C2.26464 14.5163 2.24952 14.331 2.24728 14.1428C3.17072 14.0672 4.8216 13.9916 6.73736 14.0806C6.69312 13.8006 6.66456 13.5145 6.66456 13.2166C6.66456 12.2646 7.00056 11.2566 7.61656 10.4166C7.33656 9.46456 6.94455 7.44856 7.72855 6.72056C9.24055 6.72056 10.3046 7.44856 10.8086 7.89656C11.76 7.504 12.824 7.28 14 7.28C15.176 7.28 16.24 7.504 17.136 7.896C17.64 7.448 18.704 6.72 20.216 6.72C21.056 7.504 20.608 9.52 20.328 10.416C20.944 11.256 21.28 12.208 21.224 13.216C21.224 13.487 21.1988 13.7486 21.1624 14.005C23.1218 13.9087 24.8175 13.986 25.7566 14.0622C25.7555 14.2509 25.7382 14.4351 25.7281 14.6216C24.7923 14.5443 23.0541 14.4648 21.047 14.5718C20.9972 14.7599 20.9367 14.943 20.865 15.1206C22.8508 15.1463 24.5974 15.3384 25.6519 15.5064C25.6278 15.6923 25.5998 15.8766 25.5674 16.0591C24.4966 15.8878 22.6716 15.6873 20.5951 15.6772C19.6627 17.2889 17.6719 18.34 14.56 18.4626V18.48C16.016 18.48 17.36 20.664 17.36 22.176V25.2C17.36 25.6609 17.6389 26.0568 18.037 26.2282C23.1672 24.5302 26.88 19.6918 26.88 14C26.88 6.89808 21.1025 1.12 14 1.12C6.89752 1.12 1.12 6.89808 1.12 14C1.12 19.6918 4.8328 24.5302 9.96296 26.2282Z" fill="#000002"/>
</svg>
