<svg width="20" height="17" viewBox="0 0 20 17" fill="none" xmlns="http://www.w3.org/2000/svg">
<path d="M18.97 0C19.2255 0 19.4705 0.0995036 19.6511 0.276621C19.8318 0.453739 19.9333 0.693962 19.9333 0.944444V7.55556H18.0066V1.88889H2.59329V15.1111H8.37329V17H1.62996C1.37447 17 1.12944 16.9005 0.94878 16.7234C0.76812 16.5463 0.666626 16.306 0.666626 16.0556V0.944444C0.666626 0.693962 0.76812 0.453739 0.94878 0.276621C1.12944 0.0995036 1.37447 0 1.62996 0H18.97ZM18.97 9.44444C19.2255 9.44444 19.4705 9.54395 19.6511 9.72107C19.8318 9.89818 19.9333 10.1384 19.9333 10.3889V16.0556C19.9333 16.306 19.8318 16.5463 19.6511 16.7234C19.4705 16.9005 19.2255 17 18.97 17H11.2633C11.0078 17 10.7628 16.9005 10.5821 16.7234C10.4015 16.5463 10.3 16.306 10.3 16.0556V10.3889C10.3 10.1384 10.4015 9.89818 10.5821 9.72107C10.7628 9.54395 11.0078 9.44444 11.2633 9.44444H18.97ZM18.0066 11.3333H12.2266V15.1111H18.0066V11.3333Z" fill="white"/>
</svg>
